<?xml version="1.0" encoding="utf-8" ?>
<svg xmlns="http://www.w3.org/2000/svg" xmlns:xlink="http://www.w3.org/1999/xlink" width="48" height="48">
	<path fill="#E9EAED" transform="scale(0.075 0.075)" d="M470.56 527.427L136.719 527.406C117.083 527.377 101.175 524.763 91.3724 504.264C89.619 500.597 87.8098 495.455 87.602 491.396L87.4564 167.21C87.478 158.589 87.3552 154.061 90.7506 146.107C101.52 120.878 122.776 121.119 145.362 121.104L172.267 121.095L509.317 121.098C514.048 121.101 518.848 120.79 523.475 121.895C541.371 126.17 555.019 140.862 556.139 159.407C556.648 167.838 556.254 176.521 556.256 184.976L556.269 479.493C556.279 484.739 556.786 490.56 555.497 495.671C551.519 511.437 538.581 524.914 522.031 527.125C515.208 528.036 507.562 527.434 500.663 527.435L470.56 527.427ZM132.242 146.622C123.407 147.285 115.801 150.365 113.524 159.633L113.408 160.093C112.568 163.627 112.883 167.74 112.865 171.361L112.824 188.37L510.826 188.363L530.861 188.383L530.898 171.788C530.874 167.015 531.343 161.924 529.317 157.5L529.069 156.951C525.206 148.503 519.44 146.622 510.957 146.608L132.242 146.622ZM112.793 213.84L112.82 474.468C112.829 484.366 113.809 500.623 127.026 502.013C131.201 502.452 135.665 502.116 139.881 502.117L512.5 502.039C517.831 501.998 521.711 500.97 525.649 497.163L525.843 496.963C531.447 490.505 530.943 485.008 530.959 477.037L530.96 214.128C529.044 213.389 525.328 213.864 523.13 213.854L112.793 213.84Z"/>
	<path fill="#E9EAED" transform="scale(0.075 0.075)" d="M151.436 181.139C133.529 182.498 130.53 159.989 146.801 155.379C148.503 155.214 150.774 155.069 152.426 155.487L152.812 155.596C165.909 159.197 163.914 177.639 151.436 181.139Z"/>
	<path fill="#E9EAED" transform="scale(0.075 0.075)" d="M191.443 180.896C175.472 183.196 170.656 158.471 187.495 155.384C203.245 155.088 208.014 176.069 191.443 180.896Z"/>
	<path fill="#E9EAED" transform="scale(0.075 0.075)" d="M230.824 180.894C214.446 181.595 210.47 159.572 227.824 155.352C245.24 154.683 247.143 178.484 230.824 180.894Z"/>
	<path fill="#E9EAED" transform="scale(0.075 0.075)" d="M420.17 386.176C436.691 361.3 435.124 361.587 418.86 338.61L407.196 321.893C403.412 316.533 395.79 302.64 389.522 300.225C387.254 299.352 352.448 299.573 350.398 300.65C348.915 301.429 341.693 312.321 340.115 314.448L309.204 352.976C299.394 366.106 309.047 375.942 315.322 387.799C311.793 394.708 305.789 400.553 301.236 406.837C299.17 409.688 297.332 413.54 294.921 415.991L285.008 398.75C275.134 381.544 264.858 366.521 273.265 345.781C276.153 338.657 282.188 332.512 286.798 326.398L315.405 289.374C325.479 276.814 334.703 268.191 351.152 266.375L384.034 266.232C414.953 266.306 424.227 287.692 439.927 310.296C457.493 335.587 478.04 357.735 458.615 389.219L423.809 440.346C404.865 467.254 395.317 464.714 363.187 464.697L347.357 464.677C342.472 464.667 338.112 465.221 333.725 462.886L326.499 458.683C327.069 457.821 328.125 457.111 328.862 456.361L347.811 433.467C350.767 429.859 357.463 431.25 361.61 431.245L380.107 431.238C385.058 431.236 387.881 431.992 391.382 427.971C395.122 423.675 398.082 418.436 401.301 413.729L420.17 386.176Z"/>
	<path fill="#E9EAED" transform="scale(0.075 0.075)" d="M357.411 334.109C376.898 364.702 380.506 378.091 355.851 409.021L331.419 439.685C317.846 456.363 308.387 464.625 286.544 464.68L257.854 464.659C237.072 464.462 226.372 452.556 215.307 436.074L194.741 406.36C182.598 389.161 171.46 371.283 180.898 349.095C184.055 341.675 189.659 334.914 194.233 328.302L213.184 300.915C226.829 281.628 232.709 268.813 259.552 267.287L297.031 267.572C303.491 268.011 311.998 269.131 317.178 273.017C313.364 278.278 308.93 283.111 304.892 288.205L298.025 297.028C294.764 301.27 294.674 300.727 289.298 300.694L271.518 300.654C266.513 300.65 259.092 299.786 254.573 302.026C248.803 304.885 237.147 325.187 233.114 331.039L223.278 345.359C217.088 354.122 208.367 362.106 213.955 373.593C219.296 384.571 227.485 394.492 234.349 404.549C237.509 409.18 248.568 428.909 253.725 430.419L254.062 430.504C257.133 431.296 260.43 431.208 263.579 431.222L286.564 431.181C289.263 431.155 291.984 431.213 294.607 430.494C301.121 423.567 306.523 415.365 312.473 407.94C319.505 399.163 327.655 390.714 333.696 381.195C341.534 368.845 334.209 359.114 326.08 348.94C329.167 343.696 332.998 339.111 336.736 334.333L347.945 319.249C350.52 322.528 354.737 330.066 357.411 334.109Z"/>
</svg>
